<mxfile host="app.diagrams.net" modified="2024-03-27T15:58:47.274Z" agent="Mozilla/5.0 (Windows NT 10.0; Win64; x64) AppleWebKit/537.36 (KHTML, like Gecko) Chrome/123.0.0.0 Safari/537.36" version="24.0.7" etag="8b27p2T9tCPAnDaSuDPf" type="github">
  <diagram name="Page-1" id="NQCWx0HY5CPTJqdWMmhK">
    <mxGraphModel>
      <root>
        <mxCell id="0" />
        <mxCell id="1" parent="0" />
      </root>
    </mxGraphModel>
  </diagram>
</mxfile>
